<svg width="100" height="20" viewBox="0 0 100 20" fill="none" xmlns="http://www.w3.org/2000/svg">
<path d="M8.77312 1.55038C8.86835 1.5499 8.96358 1.54942 9.06169 1.54892C9.37533 1.54751 9.68897 1.54684 10.0026 1.54631C10.1643 1.5459 10.1643 1.5459 10.3293 1.54548C10.9003 1.54403 11.4713 1.54313 12.0424 1.54271C12.6286 1.54218 13.2148 1.53986 13.801 1.53709C14.2549 1.53528 14.7087 1.53478 15.1626 1.53463C15.3785 1.53434 15.5944 1.53357 15.8103 1.53229C18.487 1.51753 20.742 2.02917 22.7995 3.79505C22.8632 3.84864 22.9268 3.90224 22.9925 3.95746C24.5109 5.32392 25.438 7.39763 25.5339 9.38699C25.5735 10.9004 25.3797 12.205 24.6995 13.5835C24.6553 13.6732 24.6111 13.7629 24.5655 13.8553C24.1987 14.5505 23.7324 15.1324 23.1995 15.7156C23.1442 15.7773 23.0889 15.8391 23.0319 15.9026C21.7228 17.2689 19.6037 18.2565 17.6864 18.3418C17.43 18.3463 17.1737 18.3477 16.9173 18.348C16.7713 18.3487 16.7713 18.3487 16.6223 18.3494C16.3012 18.3508 15.98 18.3515 15.6589 18.352C15.4344 18.3526 15.2099 18.3531 14.9854 18.3537C14.5147 18.3547 14.044 18.3553 13.5732 18.3556C12.9732 18.3562 12.3732 18.3585 11.7731 18.3612C11.3092 18.3631 10.8452 18.3636 10.3812 18.3637C10.1602 18.364 9.93918 18.3648 9.71817 18.3661C7.06417 18.3803 4.83433 17.8497 2.79949 16.1033C2.73581 16.0497 2.67213 15.9961 2.60652 15.9409C1.3865 14.843 0.532913 13.2137 0.199487 11.6452C0.181183 11.5614 0.162878 11.4775 0.144019 11.3912C-0.0962665 9.62419 0.105132 7.92474 0.899487 6.31485C0.943702 6.22515 0.987917 6.13545 1.03347 6.04303C1.40025 5.34786 1.86657 4.76591 2.39949 4.18271C2.45479 4.12099 2.51009 4.05928 2.56707 3.99569C4.14131 2.35265 6.50458 1.55315 8.77312 1.55038ZM4.39949 5.34569C4.33916 5.39504 4.27883 5.44439 4.21667 5.49523C3.02942 6.54479 2.41544 8.08342 2.29949 9.60997C2.28133 11.4463 2.86151 12.9998 4.16863 14.335C5.53498 15.6233 7.09848 16.1478 8.978 16.1288C9.12683 16.1264 9.27566 16.124 9.42449 16.1215C9.578 16.12 9.73152 16.1187 9.88503 16.1175C10.2565 16.1143 10.628 16.1093 10.9995 16.1033C10.9076 15.9992 10.8157 15.8951 10.7237 15.791C10.6413 15.6976 10.6413 15.6976 10.5572 15.6024C10.4374 15.4676 10.3161 15.3341 10.194 15.2011C8.69169 13.4983 8.17012 11.3279 8.29949 9.12539C8.4903 7.06689 9.50287 5.2455 10.9995 3.79505C10.5515 3.78777 10.1035 3.78254 9.65549 3.77908C9.50363 3.77763 9.35177 3.77566 9.19993 3.77311C7.34555 3.74286 5.82729 4.13624 4.39949 5.34569ZM11.8807 5.98776C10.6856 7.5188 10.3011 9.22938 10.5428 11.1103C10.8527 12.6418 11.7354 14.0097 13.0163 14.9517C14.6533 16.0064 16.3186 16.3027 18.2596 16.0579C19.3713 15.8191 20.3481 15.2738 21.1995 14.5526C21.2598 14.5033 21.3201 14.454 21.3823 14.4031C22.5696 13.3535 23.1835 11.8149 23.2995 10.2884C23.3176 8.452 22.7375 6.89853 21.4303 5.56337C20.0526 4.26423 18.4824 3.74376 16.5859 3.75416C14.7385 3.80295 13.0798 4.62453 11.8807 5.98776Z" fill="#3626B5"/>
<path d="M96.3959 3.43732C98.0243 4.78724 99.1255 6.77644 99.399 8.83467C99.5475 11.3741 98.9587 13.6467 97.1947 15.5718C95.644 17.1832 93.5022 18.2348 91.215 18.3521C88.5592 18.4012 86.3291 17.5186 84.3928 15.752C82.7505 14.1204 81.9264 11.9169 81.9517 9.65632C82.0009 8.32237 82.3441 7.10281 82.999 5.92721C83.0684 5.79922 83.0684 5.79922 83.1392 5.66864C83.5078 5.03052 83.9791 4.5153 84.499 3.9889C84.5605 3.92207 84.622 3.85523 84.6853 3.78637C87.7825 0.540473 93.0178 0.891476 96.3959 3.43732ZM87.424 7.06597C86.5275 8.12024 86.2687 9.33717 86.399 10.6761C86.6084 11.7679 87.2237 12.6518 88.1178 13.3352C89.2365 14.0615 90.5043 14.2546 91.822 14.0075C92.9546 13.6894 93.8766 13.0009 94.499 12.0329C95.0589 11.0157 95.176 9.84202 94.9306 8.71428C94.5522 7.63993 93.8494 6.71198 92.8107 6.16231C90.9598 5.32756 88.8479 5.59083 87.424 7.06597Z" fill="#3626B5"/>
<path d="M53.7722 3.22933C54.4447 3.79868 55.1036 4.42967 55.6003 5.15173C55.5617 5.53382 55.4129 5.86503 55.2628 6.2178C54.5698 7.93183 54.6003 9.47656 54.6003 11.3543C49.6008 11.4023 49.6008 11.4023 44.5003 11.4512C45.0848 12.8108 45.542 13.522 46.9269 14.1312C48.251 14.5943 49.7572 14.5743 51.0503 14.0195C51.6538 13.6976 52.0105 13.2497 52.4003 12.7111C52.4663 12.6472 52.5323 12.5832 52.6003 12.5173C53.4332 13.1467 54.2592 13.7832 55.0759 14.4322C55.14 14.483 55.2041 14.5339 55.2702 14.5862C55.3268 14.6312 55.3833 14.6762 55.4416 14.7225C55.5889 14.8346 55.7444 14.9364 55.9003 15.0371C55.7542 15.8773 54.8001 16.4969 54.1331 16.9622C51.929 18.3336 49.1237 18.6799 46.569 18.2171C44.2132 17.6575 42.3035 16.5217 40.9753 14.5222C39.716 12.4526 39.395 9.99019 39.9972 7.66888C40.6265 5.44792 42.0248 3.68513 44.0753 2.51079C47.1028 0.855598 51.0487 1.12839 53.7722 3.22933ZM45.4597 6.04404C44.9352 6.61591 44.4003 7.47101 44.4003 8.25303C47.0403 8.25303 49.6803 8.25303 52.4003 8.25303C52.0541 7.02268 51.6625 6.10389 50.5003 5.44248C48.849 4.65556 46.838 4.8185 45.4597 6.04404Z" fill="#3626B5"/>
<path d="M70.1007 3.2135C69.9513 3.53214 69.7597 3.78601 69.5382 4.06151C68.8483 4.97002 68.3205 6.00506 68.0007 7.09011C67.6897 6.92058 67.4186 6.7338 67.1444 6.51468C66.1359 5.7875 64.9169 5.68398 63.7007 5.83021C62.6809 6.05716 61.7575 6.55727 61.1682 7.41114C60.7865 8.00656 60.4588 8.61103 60.4007 9.31916C60.3927 9.40736 60.3847 9.49557 60.3764 9.58644C60.3255 10.6994 60.6518 11.7606 61.4007 12.6143C62.1709 13.4176 63.0989 13.9158 64.2354 13.9942C65.4692 14.0181 66.3921 13.7933 67.385 13.0587C67.5841 12.9168 67.7766 12.8109 68.0007 12.7112C68.0335 12.8063 68.0664 12.9013 68.1003 12.9993C68.5564 14.271 69.1616 15.3905 70.1007 16.394C70.1007 16.4579 70.1007 16.5219 70.1007 16.5878C69.9396 16.676 69.7785 16.7643 69.6174 16.8524C69.4698 16.9362 69.3243 17.0235 69.1807 17.1137C67.2927 18.2841 64.969 18.6027 62.7899 18.1853C61.2345 17.8485 59.9009 17.1071 58.7007 16.1032C58.5989 16.0187 58.5989 16.0187 58.4952 15.9325C56.9682 14.5626 56.0125 12.4825 55.9007 10.4821C55.8954 10.3911 55.8901 10.3 55.8846 10.2062C55.8194 7.98842 56.5996 5.88694 58.1507 4.24322C58.3312 4.05848 58.5151 3.87819 58.7007 3.69807C58.7663 3.63336 58.8319 3.56865 58.8995 3.50197C61.949 0.704701 66.8637 0.853973 70.1007 3.2135Z" fill="#3626B5"/>
<path d="M83.1006 3.2136C82.9604 3.50563 82.7932 3.74964 82.5944 4.0071C82.2677 4.4544 81.9916 4.91767 81.7256 5.40025C81.688 5.46768 81.6503 5.5351 81.6115 5.60457C81.3513 6.0851 81.163 6.57115 81.0006 7.09022C80.9495 7.05054 80.8983 7.01087 80.8456 6.96999C79.5943 6.00857 78.3702 5.69823 76.8006 5.83032C75.6718 6.03264 74.7531 6.66482 74.1006 7.57479C73.4437 8.60585 73.2749 9.67976 73.5006 10.8699C73.8547 11.9983 74.4673 12.8553 75.5006 13.4866C76.5773 13.9923 77.7588 14.1694 78.9319 13.8622C79.5491 13.6514 80.1553 13.3397 80.617 12.8866C80.8006 12.7113 80.8006 12.7113 81.0006 12.7113C81.037 12.8039 81.0733 12.8965 81.1108 12.9918C81.5381 14.064 82.0015 15.0413 82.7686 15.9311C82.9006 16.1033 82.9006 16.1033 82.9006 16.2972C82.9666 16.2972 83.0326 16.2972 83.1006 16.2972C83.1006 16.3931 83.1006 16.4891 83.1006 16.5879C82.8842 16.7441 82.6768 16.8755 82.4444 17.0059C82.3766 17.0442 82.3089 17.0826 82.2391 17.1221C80.0709 18.3192 77.722 18.6695 75.3006 18.0417C73.1215 17.435 71.2039 16.0318 70.0648 14.1215C68.9328 12.1105 68.6051 9.66261 69.2603 7.44884C69.6812 6.17927 70.3706 5.06421 71.3006 4.08584C71.3555 4.02487 71.4104 3.96391 71.467 3.90109C74.618 0.591596 79.4977 0.961947 83.1006 3.2136Z" fill="#3626B5"/>
<path d="M42.6996 1.85692C42.6996 1.92088 42.6996 1.98485 42.6996 2.05075C42.5273 2.19423 42.5273 2.19423 42.2934 2.35967C41.59 2.88018 41.0607 3.43965 40.5371 4.12837C40.4886 4.19197 40.4401 4.25557 40.3901 4.32109C40.1428 4.65093 39.9374 4.97085 39.7559 5.33981C39.4996 5.63662 39.4996 5.63662 39.2457 5.6722C39.0388 5.66858 38.8319 5.65987 38.6254 5.64684C37.726 5.61862 36.8642 5.92216 36.1996 6.50886C35.4932 7.30388 35.3702 8.12715 35.3677 9.14298C35.3662 9.28636 35.3662 9.28636 35.3647 9.43264C35.3616 9.74621 35.3599 10.0598 35.3582 10.3734C35.3563 10.5917 35.3544 10.8101 35.3523 11.0284C35.3472 11.6013 35.3432 12.1743 35.3395 12.7472C35.3348 13.4356 35.3286 14.124 35.3227 14.8123C35.3139 15.8565 35.3069 16.9007 35.2996 17.9449C33.7486 17.9449 32.1976 17.9449 30.5996 17.9449C30.5996 12.6358 30.5996 7.32682 30.5996 1.85692C32.0846 1.85692 33.5696 1.85692 35.0996 1.85692C35.1491 2.48057 35.1491 2.48057 35.1996 3.11682C35.3234 3.01687 35.4471 2.91693 35.5746 2.81396C37.639 1.27376 40.2777 1.10368 42.6996 1.85692Z" fill="#3626B5"/>
</svg>
